<?xml version="1.0" encoding="UTF-8"?>
<svg width="323px" height="34px" viewBox="0 0 323 34" version="1.1" xmlns="http://www.w3.org/2000/svg" xmlns:xlink="http://www.w3.org/1999/xlink">
    <!-- Generator: Sketch 53 (72520) - https://sketchapp.com -->
    <title>moment-house-japan-black-logo</title>
    <desc>Created with Sketch.</desc>
    <defs>
        <polygon id="path-1" points="0.0953904913 0.0591353962 19.8110745 0.0591353962 19.8110745 18.0272722 0.0953904913 18.0272722"></polygon>
        <polygon id="path-3" points="0 0.0758253968 11.7760032 0.0758253968 11.7760032 33.2240579 0 33.2240579"></polygon>
    </defs>
    <g id="moment-house-japan-black-logo" stroke="none" stroke-width="1" fill="none" fill-rule="evenodd">
        <g id="Group-6">
            <g id="Group-13" transform="translate(243.000000, 0.000000)">
                <path d="M32.1129277,17.558504 C32.1129277,19.1975198 32.1067946,20.8365357 32.1216504,22.4755516 C32.1234222,22.6555357 32.2068326,22.8649325 32.3199547,23.0088929 C32.8683921,23.7079167 33.6043667,24.1445198 34.4649119,24.3486548 C36.1414349,24.7462659 37.596484,24.4204325 38.6740054,22.9891944 C39.2184903,22.2660198 39.5386393,21.4359881 39.7438945,20.5699325 C40.2304555,18.5160357 40.3009182,16.43475 40.011026,14.350496 C39.826896,13.02625 39.40153,11.7764802 38.5542051,10.6995437 C37.6294666,9.52438492 35.9804745,9.15159921 34.6340498,9.80974206 C33.6884586,10.2718452 32.9985506,10.9958294 32.415904,11.8450198 C32.1972922,12.1638373 32.1006615,12.487377 32.1051591,12.8772976 C32.1238311,14.4375198 32.1129277,15.9981468 32.1129277,17.558504 L32.1129277,17.558504 Z M32.0991623,11.8505516 C32.511717,11.1503135 32.8454951,10.5128135 33.2448295,9.91835317 C35.1454158,7.08825794 38.871083,7.18108333 40.9446235,8.72565476 C42.1409911,9.61667063 42.8809182,10.82475 43.3065569,12.2163214 C44.214259,15.1833611 44.1416155,18.156877 43.1567724,21.0846548 C42.4923509,23.0601627 41.3160181,24.7024167 39.2869087,25.4879246 C37.2905094,26.26075 35.2956092,26.2057024 33.5125062,24.8710675 C33.0566108,24.5297183 32.7436853,24.0005595 32.3706552,23.5530278 C32.2943319,23.4615516 32.2430862,23.3497024 32.1393683,23.1805119 C32.1269658,23.3461944 32.1138818,23.4391548 32.1137455,23.5321151 C32.1127914,26.1250198 32.1236948,28.7177897 32.1035236,31.3104246 C32.0997074,31.8072024 32.2751147,32.0964722 32.7244681,32.305869 C33.6986805,32.759877 34.6549024,33.2513929 35.6180751,33.7280675 C35.7167502,33.7770437 35.8132447,33.8303373 35.9916504,33.9241071 L25.6674254,33.9241071 C26.1711591,33.6301151 26.5943445,33.3828056 27.0179388,33.1359008 C27.3795204,32.9252897 27.7346964,32.7032103 28.1047281,32.5083849 C28.4868897,32.3070833 28.6406266,32.0206468 28.6396726,31.5852579 C28.6289055,26.9272579 28.6329943,22.2693929 28.6329943,17.6113929 C28.6329943,15.3328532 28.6233176,13.0543135 28.6410355,10.7759087 C28.6445791,10.3233849 28.4904333,10.0161706 28.1236726,9.7576627 C27.3213239,9.19234524 26.5372384,8.60179762 25.6863699,7.97805952 L32.0991623,7.97805952 L32.0991623,11.8505516 Z" id="Fill-1" fill="#000000"></path>
                <g id="Group-5" transform="translate(62.101426, 7.614651)">
                    <mask id="mask-2" fill="white">
                        <use href="#path-1"></use>
                    </mask>
                    <g id="Clip-4"></g>
                    <path d="M-1.85145578,0.323121429 L-1.51495182,0.323121429 C0.335070365,0.323121429 2.18522884,0.329192857 4.03511474,0.31705 C4.34027163,0.31502619 4.44535246,0.389097619 4.44003708,0.709129365 C4.42054739,1.89602619 4.43226846,3.08332778 4.50218605,4.29343095 C4.56324469,4.15958968 4.63384374,4.02898651 4.68399905,3.89123254 C5.14916228,2.61299444 5.85910523,1.51177222 7.05356482,0.786034127 C8.15207512,0.118581746 9.3645252,-0.0376563492 10.6252225,0.110621429 C11.8652035,0.256335714 12.9044269,0.766065873 13.6290894,1.80603413 C14.1777994,2.59356587 14.5005379,3.4737881 14.6867122,4.40743889 C15.0281227,6.11782778 14.9468929,7.84778016 14.9363984,9.57462937 C14.9238596,11.628931 14.9200434,13.6832325 14.8949658,15.7375341 C14.8903319,16.1225976 15.0240339,16.3550659 15.3673525,16.54355 C16.1202273,16.9568119 16.8510228,17.4100103 17.5894507,17.8490421 C17.6501005,17.8853357 17.7009372,17.9378198 17.8111971,18.0272722 L8.53846181,18.0272722 C8.6927439,17.9140738 8.77888019,17.8425659 8.87292139,17.7833357 C9.48514326,17.3977325 10.0908231,17.0016056 10.7146298,16.6355659 C11.1776124,16.3638357 11.3794602,16.0174944 11.3817772,15.4595976 C11.3907724,13.1699944 11.4797708,10.8805262 11.4809975,8.59105794 C11.4819515,7.07765317 11.4244365,5.55642302 10.8919452,4.10831984 C10.5593937,3.20408175 10.0172257,2.44852619 9.00512425,2.24749444 C7.884671,2.0248754 6.84585642,2.2766373 5.9455141,3.00750238 C5.38617338,3.4613754 4.92864247,3.99957381 4.58055372,4.6233119 C4.49196418,4.78197857 4.43867417,4.98220079 4.43826529,5.16339921 C4.43022409,8.67727222 4.43390396,12.1911452 4.42981521,15.7050183 C4.42940634,16.0492008 4.53789445,16.2897643 4.85927005,16.4733913 C5.59524469,16.893804 6.30982155,17.3509151 7.03203074,17.794804 C7.11653154,17.8467484 7.19462662,17.9089468 7.3459103,18.0162087 L-1.90460951,18.0162087 C-1.80607068,17.9390341 -1.747329,17.8818278 -1.67863803,17.8409468 C-0.960245008,17.4127087 -0.248939144,16.9713833 0.483083043,16.5670262 C0.863609192,16.3570897 0.986135341,16.0664706 0.984227258,15.6588754 C0.975095721,13.7392246 0.980274802,11.8195738 0.980274802,9.89992302 C0.980274802,7.72203413 0.968008558,5.54401032 0.98858859,3.36625635 C0.994040254,2.7898754 0.846300158,2.36905794 0.32784691,2.04025635 C-0.367512837,1.59920079 -1.01462536,1.08380397 -1.68109128,0.598359524 C-1.75659683,0.543446825 -1.82269826,0.476121429 -1.89316101,0.414462698 C-1.87912298,0.384105556 -1.86535753,0.353613492 -1.85145578,0.323121429" id="Fill-3" fill="#000000" mask="url(#mask-2)"></path>
                </g>
                <g id="Group-8" transform="translate(0.000000, 0.059095)">
                    <mask id="mask-4" fill="white">
                        <use href="#path-3"></use>
                    </mask>
                    <g id="Clip-7"></g>
                    <path d="M0,33.2240579 C0.36866878,32.9921294 0.755328051,32.7839468 1.10287163,32.5242246 C2.64078605,31.3749706 3.48933756,29.7973437 3.93201268,27.9788833 C4.19055784,26.9165183 4.29959113,25.8380976 4.29877338,24.7441611 C4.29318542,17.4475183 4.28950555,10.1508754 4.30722345,2.85423254 C4.30858637,2.26962143 4.12772742,1.92624841 3.59155626,1.66935952 C2.69475753,1.2396373 1.83230428,0.740161111 0.955949287,0.269153175 C0.871857369,0.223954762 0.791990491,0.171335714 0.63266561,0.0758119048 L11.7760032,0.0758119048 C11.6271727,0.16823254 11.5410365,0.228137302 11.4491759,0.277653175 C10.5531949,0.759859524 9.66552773,1.25839127 8.7557813,1.71374841 C8.27889699,1.95242302 8.10635182,2.27893095 8.10730586,2.80552619 C8.12093502,9.82153413 8.1164374,16.8375421 8.11630111,23.85355 C8.11630111,24.9080897 8.10907765,25.9573675 7.83622187,26.9930183 C7.24171791,29.25105 5.89856418,30.9111135 3.83824406,32.02205 C2.6417401,32.6672405 1.36087163,33.0558119 0,33.2240579" id="Fill-6" fill="#000000" mask="url(#mask-4)"></path>
                </g>
                <path d="M55.1564152,19.5279675 L55.1953946,19.5279675 C55.1953946,18.8545786 55.1847639,18.1810548 55.2015277,17.5080706 C55.2069794,17.2873405 55.1365166,17.1700944 54.9251284,17.128404 C54.4922662,17.0431341 54.0629477,16.9221103 53.6258605,16.8802849 C52.5750523,16.779769 51.562542,16.92265 50.6680602,17.5265548 C49.2579873,18.4786897 48.648355,20.3289913 49.1981553,21.9398087 C49.5317971,22.9171738 50.1301173,23.6553246 51.1985071,23.8427294 C52.7912108,24.1222849 53.9500983,23.3803563 54.8850586,22.1854992 C55.0874517,21.9265865 55.1730428,21.6446024 55.1620032,21.3121579 C55.1422409,20.7179675 55.1564152,20.1226976 55.1564152,19.5279675 M61.0380792,22.9804516 C61.111813,23.5552135 60.9227765,24.0641341 60.636019,24.5270468 C59.83258,25.8245786 58.2250206,26.3104278 56.8368906,25.6699595 C55.9425452,25.2573722 55.5092742,24.4821183 55.3053819,23.5676262 C55.2182916,23.1773008 55.1776767,22.7768563 55.1066688,22.3205548 C55.0247575,22.4847532 54.9499334,22.6121183 54.8954168,22.7474437 C53.8437908,25.3588325 51.0221458,26.6308643 48.3538288,25.6386579 C46.7375468,25.0375865 45.7749192,23.8288325 45.5132393,22.1451579 C45.1783708,19.9916897 45.8107639,18.1798405 47.6913154,16.9316897 C49.0634992,16.0209754 50.6097274,15.7698881 52.241683,15.92815 C53.2908558,16.0300151 54.2399905,16.3883643 55.1532805,16.9577294 C55.1782219,16.8638246 55.2107956,16.7955548 55.2125674,16.7263405 C55.2420063,15.5483484 55.2852108,14.3703563 55.2886181,13.1922294 C55.2910713,12.2688325 55.1883074,11.3509675 54.8148685,10.4921976 C54.2117781,9.10521349 53.144206,8.35478492 51.608336,8.28354683 C51.3591949,8.27194365 51.108691,8.28624524 50.8596862,8.27396746 C50.4916989,8.25575317 50.2794929,8.4265627 50.1291632,8.75388016 C49.4411632,10.253523 48.7374897,11.7462849 48.0383138,13.2409357 C47.9933376,13.337269 47.9393661,13.4292849 47.8000761,13.5203563 C47.2606339,11.9845548 46.7211918,10.4488881 46.1519017,8.82808651 C46.8807892,8.5965627 47.5690618,8.34979286 48.2728716,8.15995952 C50.0423455,7.68261032 51.853252,7.58344365 53.6712456,7.71418175 C55.1812203,7.82279286 56.5343233,8.30284048 57.4368463,9.61696746 C58.0706022,10.5395548 58.3780761,11.5872135 58.481794,12.6745389 C58.5901458,13.8107056 58.6280349,14.957531 58.6232647,16.0994992 C58.6160412,17.861023 58.5281331,19.622277 58.5134136,21.3839357 C58.5087797,21.9373802 58.5761078,22.5045865 58.7068114,23.0425151 C58.8530523,23.6453405 59.1933724,23.8755151 59.7329509,23.9039833 C60.3495341,23.9364992 60.672,23.7445071 60.9441743,23.1824278 C60.9764754,23.1156421 61.0068685,23.047777 61.0380792,22.9804516" id="Fill-9" fill="#000000"></path>
                <path d="M20.4551724,19.537196 L20.4968777,19.537196 C20.4968777,18.8863389 20.4752073,18.2342675 20.5062818,17.5848944 C20.5207287,17.2829421 20.4107414,17.1536881 20.1373404,17.1032278 C19.7367794,17.0291563 19.3401708,16.9196008 18.9363388,16.8807437 C17.8845765,16.7795532 16.8730203,16.9210849 15.9770393,17.5217516 C14.5720092,18.4634976 13.9642849,20.2974738 14.4796035,21.8995214 C14.9473563,23.3535611 16.1614418,24.0964341 17.5681074,23.8673389 C18.7010995,23.6829024 19.5014038,23.0456722 20.1790456,22.1935135 C20.3912517,21.9266405 20.4742532,21.6322437 20.4611693,21.2880611 C20.4392263,20.705204 20.4551724,20.1208627 20.4551724,19.537196 M26.3717271,22.9089976 C26.4830773,24.3633071 25.1820377,25.7699897 23.7362564,25.9227198 C22.0347921,26.102569 20.9335559,25.0569341 20.6033214,23.5806325 C20.5156859,23.1884183 20.4777968,22.7851405 20.4084244,22.3299183 C20.3382342,22.4589024 20.2706336,22.5602278 20.2248396,22.670323 C19.2228238,25.0777119 17.19167,26.2338468 14.5860472,25.8773865 C12.5617081,25.6005294 10.9744561,23.9418151 10.7772422,21.9266405 C10.6364529,20.489196 10.8531566,19.1521325 11.8010647,17.9981563 C12.6666526,16.9442913 13.800735,16.3232516 15.1282152,16.0534103 C16.9741487,15.6780611 18.7357176,15.87545 20.3533626,16.9051643 C20.3789854,16.9214897 20.4160567,16.9202754 20.4679838,16.9316087 C20.4842025,16.8645532 20.511052,16.8028944 20.5125512,16.740696 C20.5403547,15.5176405 20.591464,14.29445 20.5830139,13.0716643 C20.5757905,12.0346643 20.4379997,11.0087278 19.9125956,10.0815532 C19.2744783,8.95550556 18.2878634,8.3653627 16.9891407,8.28643413 C16.7176479,8.26997381 16.4441106,8.28778333 16.1723452,8.27348175 C15.8073563,8.25445794 15.5827477,8.41258492 15.4321455,8.74098175 C14.7485068,10.2305056 14.0528745,11.7146325 13.3598317,13.199704 C13.3094038,13.3077754 13.2453468,13.4095056 13.1326336,13.6135056 C12.5608903,11.9873071 12.0218571,10.454069 11.459109,8.85323571 C12.01109,8.65800556 12.5314513,8.44645 13.0680314,8.28913254 C14.9930139,7.72448968 16.9670615,7.56825159 18.9599173,7.71302143 C20.4696193,7.8227119 21.824903,8.29574365 22.7294704,9.60919603 C23.3714038,10.5410929 23.6405797,11.6022437 23.7943166,12.6983389 C24.0722152,14.6781643 23.895445,16.6654103 23.8756827,18.649823 C23.8664149,19.5810452 23.8014038,20.5121325 23.8095813,21.44295 C23.8142152,21.964823 23.8642342,22.4984341 23.9890773,23.0038468 C24.1439046,23.6317675 24.48109,23.8734103 25.0238032,23.9034976 C25.671052,23.9395214 25.9695306,23.7527913 26.2650108,23.1274341 C26.2879078,23.0791325 26.3120314,23.0312357 26.3717271,22.9089976" id="Fill-11" fill="#000000"></path>
            </g>
            <g id="Group-25" transform="translate(0.000000, 1.000000)">
                <g id="Group-3" transform="translate(0.000000, 0.025418)" fill="#000000">
                    <path d="M31.0217823,25.4345194 L19.2064647,25.4345194 C19.3655825,25.262609 19.4527782,25.1576388 19.5509943,25.0643104 C20.123277,24.5196687 20.6816393,23.9585343 21.2777027,23.4416388 C21.7283753,23.0506687 21.9112738,22.6026537 21.909147,22.0025194 C21.8925199,17.5571015 21.8983201,13.1114896 21.9019935,8.66587761 C21.9025735,7.97105672 21.9311877,7.27642985 21.9404679,6.58141493 C21.9425946,6.42871343 21.9174606,6.27542985 21.8091909,6.1112806 C19.1871308,12.6118627 16.5648773,19.1122507 13.9428172,25.6126388 C13.8838489,25.6143851 13.8248806,25.6159373 13.7661056,25.6174896 C10.817883,19.1157433 7.86966044,12.613609 4.92143786,6.11166866 C4.88760357,6.11496716 4.85357595,6.11826567 4.81974167,6.12156418 C4.80156783,6.30414627 4.76754021,6.48653433 4.76754021,6.66892239 C4.76618684,10.871997 4.77508042,15.0750716 4.76212673,19.2781463 C4.76038668,19.8278328 4.92453128,20.2537284 5.2634541,20.686997 C6.39564582,22.1354299 7.48433631,23.6178179 8.5869472,25.0893403 C8.65094232,25.1747134 8.69019009,25.2787134 8.77100569,25.4306388 L2.27373675e-13,25.4306388 C0.0670885459,25.3089821 0.111943136,25.1989672 0.180578392,25.106997 C1.31006336,23.5955045 2.43510154,22.0805194 3.5794736,20.5804746 C3.87760195,20.1896985 4.03265963,19.7837881 4.03188627,19.2894 C4.0245394,14.6497582 4.02241267,10.0101164 4.034013,5.37066866 C4.03517303,4.80584776 3.86600162,4.34231045 3.52243867,3.9032209 C2.68740861,2.83683284 1.8755792,1.75201194 1.05543623,0.67378806 C0.960506905,0.549220896 0.871184403,0.420385075 0.740680747,0.239937313 C0.911205524,0.207146269 1.01232169,0.170862687 1.11363119,0.170862687 C3.67362957,0.170474627 6.23401462,0.181340299 8.794013,0.168728358 C9.17160357,0.16678806 9.36204224,0.289026866 9.52019334,0.638474627 C11.8000439,5.67490746 14.0949748,10.7045493 16.3885524,15.7347731 C16.4975955,15.9740119 16.6290658,16.2027731 16.8133176,16.5586239 C17.2158489,15.5574299 17.5626986,14.6959373 17.9089683,13.8340567 C19.681498,9.42278806 21.4561543,5.01229552 23.2203704,0.597728358 C23.3392738,0.300280597 23.4947181,0.170280597 23.8208806,0.171056716 C26.1235451,0.178235821 28.4260162,0.169504478 30.7286807,0.169892537 C30.8166499,0.169892537 30.904619,0.210832836 31.0540699,0.248280597 C30.9363266,0.398071642 30.8568643,0.511967164 30.7646418,0.614220896 C30.095303,1.35696716 29.3998635,2.07798209 28.7643591,2.84886269 C28.546853,3.11293731 28.3587344,3.49944478 28.357381,3.83065373 C28.333407,9.9573403 28.3405605,16.0842209 28.3384338,22.2109075 C28.3382405,22.6220567 28.4718375,22.9515194 28.7829196,23.2365493 C29.4481982,23.845997 30.0910496,24.4802806 30.7406677,25.106997 C30.8257368,25.1890716 30.8961121,25.2868627 31.0217823,25.4345194 Z M150.457548,25.4429597 L138.553682,25.4429597 C138.737547,25.2477657 138.84601,25.1210642 138.966073,25.0069746 C139.597131,24.4066463 140.258349,23.8350343 140.850546,23.1984224 C141.079072,22.9523925 141.277438,22.5616164 141.278598,22.2360343 C141.303732,15.9793478 141.304312,9.72246716 141.278405,3.4657806 C141.277245,3.12215373 141.074626,2.71313881 140.838172,2.45022836 C140.300691,1.85222836 139.688774,1.32039254 139.09503,0.774780597 C138.954666,0.645556716 138.767321,0.567362687 138.60163,0.465691045 C138.645711,0.402631343 138.689792,0.339765672 138.733873,0.27651194 L150.364939,0.27651194 C150.228635,0.440273134 150.144533,0.561929851 150.04071,0.663019403 C149.43962,1.2480194 148.84143,1.83631791 148.226999,2.4069597 C147.885756,2.72381045 147.728959,3.08121343 147.731665,3.55813881 C147.746746,6.24176567 147.746939,8.9257806 147.730892,11.6094075 C147.728379,12.0543179 147.865649,12.1823776 148.311295,12.178303 C150.710629,12.1563776 153.110156,12.1585119 155.50949,12.1765567 C155.936382,12.1798552 156.100527,12.0857507 156.096853,11.6179448 C156.075779,8.95042239 156.081193,6.28270597 156.091633,3.61518358 C156.093373,3.11245224 155.939282,2.7170194 155.562271,2.37727313 C154.987862,1.8590194 154.445934,1.30428806 153.879064,0.776914925 C153.740054,0.647497015 153.558122,0.564646269 153.395911,0.460258209 C153.439219,0.398944776 153.482527,0.337631343 153.525641,0.27631791 L165.144913,0.27631791 C164.983282,0.456377612 164.888159,0.57551194 164.779503,0.680676119 C164.177446,1.26451194 163.546582,1.82118358 162.980679,2.43819851 C162.762787,2.67549701 162.570221,3.04667612 162.569254,3.35751194 C162.54586,9.67881045 162.553981,16.000303 162.547407,22.3217955 C162.54702,22.6916164 162.669404,22.9615119 162.938918,23.2102582 C163.626044,23.8447358 164.293449,24.5007507 164.966655,25.1497806 C165.04167,25.2219597 165.105665,25.3055866 165.224955,25.4410194 L153.35067,25.4410194 C153.519841,25.2574672 153.626951,25.1297955 153.745854,25.0143478 C154.393925,24.385109 155.067904,23.7803179 155.682335,23.1198403 C155.891721,22.8947657 156.064372,22.533094 156.067466,22.2321537 C156.09608,19.2576761 156.082159,16.2828104 156.091246,13.3079448 C156.092406,12.9831388 155.960743,12.8876761 155.660488,12.8882582 C153.164484,12.8940791 150.668481,12.8956313 148.172478,12.887094 C147.825821,12.8859299 147.734566,13.0372731 147.735339,13.3564522 C147.742106,16.3313179 147.727992,19.3063776 147.757186,22.2808552 C147.760086,22.5755866 147.948205,22.9275567 148.158364,23.150303 C148.788648,23.8181537 149.473648,24.4341985 150.134479,25.0735269 C150.231535,25.1672433 150.313318,25.2768701 150.457548,25.4429597 Z M83.1115721,25.456794 L73.0351431,25.456794 C73.2754632,25.2051373 73.4616484,25.0039284 73.6542138,24.8091224 C75.3583015,23.0873015 75.0769937,23.8793313 75.1187548,21.3493761 C75.1487223,19.5390776 75.1887435,17.7289731 75.1991838,15.9186746 C75.2063373,14.6580627 75.1402154,13.405794 74.7734518,12.1806896 C74.2643909,10.4800179 72.6830733,9.96506269 71.0920887,10.6742418 C70.9018434,10.7590328 70.7191383,10.8678836 70.5484201,10.987794 C69.934763,11.4189284 69.4922106,11.8541373 69.7379441,12.7697642 C69.94675,13.5478239 69.9046021,14.4052418 69.9013154,15.2271522 C69.8910684,17.7487642 69.854334,20.2703761 69.8073527,22.7916 C69.7986525,23.2539731 69.9469433,23.5935254 70.2850928,23.8942716 C70.8334015,24.3818687 71.3598629,24.8944955 71.9503194,25.4478687 L62.0144478,25.4478687 C62.4424998,24.9816149 62.8751919,24.4521075 63.3705258,23.9901224 C63.7558499,23.6309731 63.9211545,23.2504806 63.9227012,22.720391 C63.9304348,20.1019582 64.0035168,17.4835254 63.9822496,14.8658687 C63.975096,14.0047642 63.8150115,13.1312418 63.618386,12.2883761 C63.0683373,9.93052537 60.605975,9.93130149 59.2587906,11.2165552 C58.8260985,11.6292567 58.5993121,12.0840627 58.6076257,12.7420179 C58.6501602,16.0713761 58.6346931,19.4018985 58.619226,22.7318388 C58.6169059,23.2254507 58.7605566,23.6001224 59.1250002,23.9251224 C59.653975,24.397197 60.1599425,24.8952716 60.7266184,25.430406 L50.6760968,25.430406 C51.181291,24.9544507 51.6163032,24.4907194 52.1069969,24.0970328 C52.6348117,23.6734657 52.8041764,23.1728687 52.7995363,22.4997791 C52.7722755,18.5233313 52.7802024,14.5466896 52.7937361,10.5700478 C52.7952829,10.0789582 52.646412,9.69807761 52.3024624,9.36143582 C51.7781277,8.84880896 51.2710002,8.31833134 50.6826703,7.72052537 L58.5900318,7.72052537 L58.5900318,11.2819433 C58.6227061,11.3073612 58.6553803,11.3327791 58.6880546,11.358197 C59.7115899,8.84415224 61.50036,7.43413731 64.2274031,7.40619701 C67.0683227,7.37689851 68.7262024,8.90857015 69.4867971,11.4918836 C69.9299295,10.811809 70.3053933,10.0919582 70.8129076,9.48289851 C72.709174,7.20634627 76.3474226,6.70128657 78.6821813,8.38779403 C79.8679279,9.24443582 80.4492975,10.5244507 80.7128182,11.9125403 C80.9162106,12.9845552 81.0173267,14.0903313 81.0262203,15.1821373 C81.0463275,17.6872567 80.9933527,20.1931522 80.9434713,22.6980776 C80.933611,23.1951821 81.0761017,23.5605403 81.4457654,23.8855403 C81.9890473,24.3632418 82.5006216,24.8768388 83.1115721,25.456794 Z M121.236968,25.4501582 L111.255468,25.4501582 C111.215061,25.4105761 111.174653,25.3711881 111.134052,25.3318 C111.407433,25.1030388 111.667087,24.8548746 111.956708,24.649009 C112.934809,23.9532179 113.260005,23.0453522 113.220757,21.8254866 C113.146321,19.5175015 113.285139,17.2035015 113.261165,14.8928 C113.252078,14.0307254 113.103207,13.1542925 112.900008,12.3131731 C112.315738,9.89420299 109.853569,9.98850149 108.578113,11.1720836 C108.10482,11.6115612 107.876874,12.091591 107.884607,12.7776806 C107.922888,16.0917104 107.910515,19.4065164 107.892921,22.7207403 C107.890214,23.2356955 108.050105,23.6165761 108.427889,23.9506955 C108.943717,24.4068597 109.433831,24.8923224 110.00998,25.4358 L99.9952263,25.4358 C100.231486,25.1994716 100.399884,24.9674119 100.622997,24.8178149 C101.814544,24.0197701 102.132006,22.9355313 102.090245,21.5078597 C101.985842,17.9218 102.04771,14.3303075 102.063564,10.7411433 C102.066078,10.1348 101.91276,9.65457612 101.450874,9.2397403 C100.953413,8.79327761 100.511441,8.2849194 99.9764725,7.73232239 L107.894661,7.73232239 L107.894661,11.1233821 C107.935262,11.1326955 107.976057,11.142397 108.016851,11.1519045 C108.090706,11.0061881 108.169975,10.862994 108.238031,10.7145612 C109.817221,7.27111343 113.81044,6.6989194 116.31379,8.05732239 C117.711243,8.81578507 118.429109,10.1231582 118.774412,11.610009 C119.006419,12.6092627 119.15355,13.6508149 119.16283,14.6749045 C119.186804,17.3092478 119.126096,19.9445612 119.068481,22.5790985 C119.054947,23.1998 119.239972,23.6619791 119.716745,24.0546955 C120.211499,24.4621582 120.664685,24.9204567 121.236968,25.4501582 Z M204.597348,25.4498672 L196.625991,25.4498672 L196.625991,21.9315239 C196.589257,21.9206582 196.552522,21.9095985 196.515788,21.8987328 C196.428399,22.0582254 196.334436,22.2142254 196.254974,22.3774045 C194.92751,25.1031358 192.1995,26.3292104 189.328033,25.4741209 C187.616019,24.9644045 186.72318,23.6772104 186.195752,22.0661806 C185.784327,20.8086731 185.675671,19.5065388 185.685338,18.1927627 C185.703705,15.7039418 185.721879,13.2149269 185.768087,10.726494 C185.779107,10.1341209 185.643383,9.66049403 185.178597,9.27165821 C184.660063,8.83780746 184.172656,8.36670299 183.671908,7.91189701 L183.769738,7.75065821 C183.882647,7.7363 183.995557,7.70952388 184.108467,7.70932985 C186.443226,7.70700149 188.777791,7.71728507 191.112357,7.69865821 C191.514888,7.6953597 191.590483,7.8383597 191.585843,8.20391194 C191.548722,11.1130015 191.495167,14.0224791 191.518948,16.9315687 C191.530935,18.3772851 191.491107,19.8431806 191.983154,21.2458224 C192.501689,22.7249119 193.826833,23.2765388 195.181171,22.5029418 C195.641897,22.2400313 196.025094,21.8236433 196.401138,21.4357776 C196.537635,21.2947179 196.610137,21.0329716 196.610911,20.8259418 C196.623284,17.3991806 196.614971,13.9724194 196.624638,10.5456582 C196.625991,10.0553448 196.453146,9.68183731 196.105716,9.34752388 C195.589309,8.85061343 195.100162,8.3251806 194.527492,7.7382403 L202.447807,7.7382403 L202.447807,8.30403134 C202.447807,13.072509 202.452254,17.8409866 202.440654,22.6092701 C202.439494,23.0949269 202.552404,23.4641657 202.934248,23.798091 C203.489903,24.2839418 203.987364,24.8371209 204.597348,25.4498672 Z M44.0778127,17.2708687 C43.9639361,15.2141522 43.958716,13.8186896 43.7866445,12.4443761 C43.6580742,11.416406 43.3804398,10.3927045 43.0459638,9.40916716 C42.7513155,8.54243582 42.0388622,8.07909254 41.1069695,8.07074925 C40.1553561,8.0626 39.4541165,8.52613731 39.1169337,9.40839104 C38.8427794,10.1251373 38.6055527,10.8752567 38.4918695,11.6315851 C38.0479638,14.5868537 38.1256859,17.5586149 38.3638793,20.5255254 C38.4605487,21.7314209 38.6432538,22.9324657 39.245504,24.0186448 C40.0219524,25.4189582 41.9182188,25.5419731 42.8013903,24.2060776 C43.1227193,23.7202269 43.4001604,23.1383313 43.4790426,22.5698239 C43.7539703,20.5930478 43.9331953,18.6028836 44.0778127,17.2708687 Z M41.0410409,25.8041075 C39.3247729,25.7437642 37.6730799,25.4765851 36.1230832,24.7080328 C34.0151108,23.662794 32.67914,21.9720179 32.0960304,19.7133164 C31.477153,17.3160776 31.4889467,14.9097194 32.3742448,12.5703015 C33.2405958,10.2813313 34.903309,8.76828657 37.2015267,8.02282388 C39.8821685,7.15357015 42.590651,7.16268955 45.255439,8.11886866 C47.7094877,8.99918209 49.3205795,10.7312866 50.0595202,13.2354358 C50.6903846,15.3722866 50.7363992,17.5434806 50.1310556,19.6929433 C49.2163699,22.9394507 46.9956811,24.7893313 43.7646039,25.4624209 C42.8717656,25.6484955 41.9497331,25.6940925 41.0410409,25.8041075 Z M177.28388,16.5977403 C177.28388,15.5969343 177.333375,14.5928299 177.271893,13.5959045 C177.184697,12.1798746 177.062507,10.7593821 176.459677,9.44056119 C176.070293,8.58857612 175.431308,8.07905373 174.475441,8.07109851 C173.496567,8.06275522 172.772127,8.55248657 172.471678,9.45763582 C172.144549,10.4435015 171.873102,11.4703075 171.754585,12.4998299 C171.44389,15.2032478 171.497251,17.9190836 171.745498,20.6271582 C171.848354,21.7525313 172.025259,22.8707254 172.548627,23.8965612 C172.929891,24.6441582 173.514934,25.0879045 174.375485,25.117397 C175.25131,25.1472776 175.909048,24.7638746 176.314286,24.0044418 C176.547066,23.5680687 176.737118,23.0932776 176.854861,22.6130537 C177.339755,20.6376358 177.363149,18.6168149 177.28388,16.5977403 Z M174.631272,25.7922328 C172.816788,25.7656507 171.066299,25.5060388 169.432007,24.675203 C167.457051,23.6712925 166.165355,22.0918896 165.546284,19.9674567 C164.893766,17.7283522 164.870179,15.4760537 165.526951,13.2330687 C166.292379,10.6187104 168.00304,8.86254627 170.556465,8.03345672 C173.518414,7.07184478 176.496605,7.12966567 179.365172,8.42733731 C181.339934,9.32084478 182.661017,10.869009 183.33925,12.9383373 C184.008008,14.9781731 184.104871,17.0622478 183.637765,19.1533075 C182.853969,22.6635015 180.61936,24.7157552 177.162077,25.4600537 C176.33304,25.6385612 175.475583,25.6851284 174.631272,25.7922328 Z M94.0510652,15.1467657 C94.0510652,14.2084373 94.0935997,13.3364672 94.0404315,12.470706 C93.9731496,11.3777358 93.8861472,10.2781687 93.4028003,9.26300448 C93.0663909,8.55634776 92.5671903,8.10309403 91.7387337,8.07321343 C90.917044,8.0437209 90.2972,8.38075075 89.8848084,9.06781045 C89.655122,9.45043731 89.4117085,9.86760149 89.3426866,10.2966015 C89.1102934,11.7419299 88.9558158,13.1996761 88.7657638,14.6519896 C88.7154957,15.0348104 88.8635932,15.1591836 89.2467906,15.1537507 C90.5661342,15.1349299 91.8856712,15.1467657 93.2052081,15.1467657 L94.0510652,15.1467657 Z M99.5053446,15.7824075 L98.8909141,15.7824075 C95.7021781,15.7824075 92.5132487,15.7934672 89.3247061,15.7707657 C88.8313056,15.7670791 88.6979019,15.9281239 88.7785241,16.3794373 C88.9262349,17.2036761 88.976503,18.0566313 89.2195298,18.8506015 C90.0336793,21.5113328 92.3034762,22.8375269 95.0307126,22.344497 C96.9459262,21.9981537 98.3714128,20.9839597 99.3154859,19.211497 C99.2996322,20.1230493 98.5653316,21.9019149 97.8551984,22.8681836 C96.2158791,25.0989448 93.904321,25.7951239 91.2855477,25.7547657 C89.9240562,25.7336164 88.6047126,25.4747806 87.357871,24.885706 C85.3382544,23.9310791 83.9682561,22.383497 83.2871236,20.2695418 C82.5779571,18.0692433 82.5220822,15.818303 83.097845,13.5747358 C83.9622626,10.2061836 86.4331318,8.0047209 89.8718548,7.53361642 C92.0146281,7.24004925 94.1102268,7.35355672 96.0786086,8.39375075 C97.9793219,9.39824328 98.9806232,11.0335269 99.3638206,13.0937358 C99.4786639,13.7103627 99.5142382,14.3432881 99.5606395,14.9707806 C99.5790067,15.2220493 99.5283519,15.4785567 99.5053446,15.7824075 Z M226.837355,15.0666119 C226.971725,15.1052239 227.032627,15.1380149 227.093335,15.138209 C228.670013,15.1422836 230.24669,15.1395672 231.823368,15.1475224 C232.15765,15.1492687 232.181431,14.9362239 232.170604,14.696791 C232.117822,13.52 232.131163,12.3340896 231.978039,11.1704925 C231.877116,10.4046567 231.583048,9.65007463 231.281826,8.93022388 C231.085587,8.46047761 230.650575,8.16768657 230.108646,8.10579104 C228.951707,7.97385075 228.150705,8.36870149 227.724586,9.53598507 C227.364009,10.523597 227.162744,11.5806716 226.991252,12.6235821 C226.859009,13.4266716 226.882596,14.2555672 226.837355,15.0666119 Z M237.384177,19.4194776 C236.78792,22.022 235.587866,24.1974627 232.930812,25.1670299 C230.103233,26.1988806 227.321281,25.9708955 224.697675,24.4807463 C222.9845,23.5078806 221.880149,21.9882388 221.315407,20.1077015 C220.685896,18.0104328 220.625187,15.8677612 221.133668,13.7423582 C222.028633,10.0016567 224.936641,7.65544776 228.838217,7.43114925 C230.546558,7.33297015 232.211592,7.47150746 233.791169,8.20377612 C235.565246,9.02626866 236.758726,10.3701194 237.228732,12.2673433 C237.470599,13.2444776 237.507913,14.2732239 237.629137,15.2796567 C237.676505,15.6739254 237.492446,15.7930597 237.096295,15.7909254 C233.892286,15.775597 230.688276,15.7823881 227.484266,15.7823881 L226.961091,15.7823881 C226.684037,17.6014179 227.448692,20.7458657 229.571745,21.8299104 C230.990078,22.5542239 232.445338,22.5637313 233.933853,22.1440448 C235.201962,21.7866418 235.722043,21.3566716 237.384177,19.4194776 Z M205.132509,24.6412478 C205.788314,22.7818597 206.424979,20.9756358 207.104178,19.0487254 C207.236422,19.2722478 207.317431,19.3948746 207.384326,19.5248746 C208.234243,21.1745164 209.09286,22.8196955 209.92325,24.4790388 C210.14733,24.9268597 210.455125,25.1608597 210.945819,25.1164269 C211.678766,25.0500687 212.433174,25.0531731 213.136154,24.8665164 C214.144028,24.5987552 214.794227,23.895203 214.945031,22.8206657 C215.103569,21.6912179 214.5425,20.9088896 213.62066,20.3941284 C212.638306,19.845606 211.608971,19.3822627 210.600516,18.8806955 C209.78018,18.4724567 208.919822,18.1276657 208.148787,17.6406507 C206.250201,16.4419343 205.454998,14.6568597 205.668058,12.4358 C205.86217,10.4097403 207.031096,9.08121791 208.803045,8.22030746 C210.218092,7.53266567 211.734448,7.39044179 213.273617,7.40324776 C215.133729,7.41857612 216.956527,7.71621791 218.749164,8.20788955 C218.900742,8.24941194 219.048452,8.30626269 219.246431,8.37242687 C218.577479,10.1101582 217.921481,11.8143224 217.228555,13.6141433 C216.636358,12.5611433 216.09211,11.5954567 215.549794,10.6284119 C215.186898,9.98112836 214.815687,9.3379194 214.469611,8.68151642 C214.216724,8.20226269 213.868521,7.98417313 213.307065,8.0047403 C212.604665,8.03054627 211.920246,8.09244179 211.309876,8.4616806 C209.700524,9.43512836 209.744412,11.6858746 211.430326,12.7549791 C212.214121,13.2518896 213.082019,13.6166657 213.918209,14.028397 C215.100669,14.6102925 216.32953,15.1093373 217.466748,15.7684567 C220.809382,17.7056507 220.179677,22.6856209 217.249049,24.4078299 C215.369989,25.5120537 213.329299,25.819203 211.21108,25.7569194 C209.290646,25.7004567 207.404433,25.3832179 205.569648,24.7933672 C205.448618,24.7543672 205.329522,24.7099343 205.132509,24.6412478 Z M128.165823,1.78200896 C128.173363,1.95217313 128.186897,2.12233731 128.18709,2.29230746 C128.18883,3.92526269 128.202944,5.55841194 128.17781,7.19078507 C128.17143,7.6128 128.315467,7.70690448 128.702338,7.6999194 C129.845356,7.67877015 130.988955,7.6946806 132.132361,7.69060597 C132.391241,7.68982985 132.617254,7.68556119 132.611067,8.05402388 C132.605074,8.40929254 132.378867,8.37087463 132.147634,8.37029254 C130.988182,8.36718806 129.828536,8.38077015 128.669277,8.36214328 C128.289753,8.35612836 128.17839,8.48011343 128.179743,8.86429254 C128.193857,12.6796955 128.18361,16.4952925 128.195597,20.3106955 C128.19695,20.7257254 128.250118,21.152591 128.356261,21.5532627 C128.702144,22.8581134 130.038309,23.3833522 131.17746,22.660397 C131.53591,22.4331881 131.836166,22.114009 132.191135,21.8130687 C131.935542,23.1091881 131.334452,24.1990537 130.239187,24.870203 C128.348528,26.0279791 126.338965,26.1127701 124.346029,25.1166209 C123.104214,24.4957254 122.637301,23.323397 122.460203,22.0245612 C122.379774,21.4343224 122.361407,20.8320537 122.360053,20.2350239 C122.351547,16.4681284 122.347486,12.7012328 122.366627,8.93433731 C122.368947,8.48050149 122.239023,8.32605373 121.799564,8.3629194 C121.447688,8.39241194 121.087884,8.39920299 120.739101,8.35496418 C120.610144,8.33866567 120.503035,8.14871045 120.386065,8.0379194 C120.500135,7.92305373 120.605698,7.72029254 120.729821,7.70826269 C121.256283,7.65742687 121.796278,7.71253134 122.315392,7.62890448 C122.617581,7.58020299 122.957277,7.40460597 123.164149,7.17894925 C124.701386,5.50253134 126.211361,3.80069552 127.724044,2.10157612 C127.837147,1.97448657 127.905589,1.80723284 127.994911,1.65860597 C128.051946,1.6997403 128.108788,1.74087463 128.165823,1.78200896 Z" id="Combined-Shape"></path>
                </g>
                <g id="Group-20" transform="translate(208.212835, 7.398552)"></g>
            </g>
        </g>
    </g>
</svg>