<svg width="2753" height="300" viewBox="0 0 2753 300" fill="none" xmlns="http://www.w3.org/2000/svg">
<path d="M333.793 259.072V42.1941C333.793 36.2869 334.213 35.443 337.996 31.6456L365.742 0.843869V0H275.358L198.005 192.405L110.143 0H9.66905V0.843869L44.1413 46.4135C47.5045 50.6329 47.9249 51.4768 47.9249 58.6498V225.738C47.9249 232.489 47.0841 233.333 42.4598 239.662L0 295.781V296.624H104.678V295.781L62.2183 239.662C57.5939 233.333 56.7531 232.489 56.7531 225.738V64.557C58.8551 70.4641 62.2183 77.6371 64.7406 83.1224L163.113 300H163.954L258.962 64.135C258.122 72.5738 257.701 82.2785 257.701 89.4515V259.072C257.701 264.557 257.281 265.823 253.918 269.198L225.751 295.781V296.624H365.742V295.781L337.996 269.198C334.213 265.823 333.793 264.557 333.793 259.072Z" fill="white"/>
<path d="M472.963 92.4051C493.982 92.4051 507.014 110.97 507.014 192.405C507.014 274.262 493.982 292.405 472.963 292.405C451.943 292.405 438.911 273.418 438.911 191.983C438.911 110.127 451.943 92.4051 472.963 92.4051ZM472.963 300C539.385 300 583.946 263.291 583.946 192.405C583.946 120.675 539.385 84.3882 472.963 84.3882C406.54 84.3882 362.399 121.097 362.399 191.983C362.399 263.713 406.54 300 472.963 300Z" fill="white"/>
<path d="M941.09 173.418C941.09 115.19 917.548 84.3882 875.929 84.3882C840.616 84.3882 815.393 106.329 805.724 134.177C796.895 101.688 775.876 84.3882 744.767 84.3882C710.715 84.3882 688.434 102.954 677.924 132.489V87.7637H584.597V88.6076L605.196 109.705C608.559 113.502 608.98 114.768 608.98 120.253V266.245C608.98 271.73 608.98 272.996 605.196 276.371L584.597 295.781V296.624H702.307V295.781L681.708 276.371C677.924 272.996 677.924 271.73 677.924 266.245V137.975C685.491 127.004 695.581 119.409 709.033 119.409C735.098 119.409 740.983 144.726 740.983 183.122C740.983 203.376 739.722 260.338 739.722 266.667C739.722 271.308 739.302 272.996 735.938 276.371L715.76 295.781V296.624H833.89V295.781L812.87 276.371C809.507 272.996 809.087 271.73 809.087 266.245C809.507 232.911 810.348 199.578 810.348 173.418C810.348 159.916 809.087 148.101 806.565 137.553C814.972 126.582 826.323 119.409 839.776 119.409C866.26 119.409 872.146 145.148 872.146 183.122C872.146 203.376 870.885 259.916 870.885 266.667C870.885 271.308 870.044 272.996 866.681 276.371L846.922 295.781V296.624H964.633V295.781L944.033 276.371C940.25 272.996 939.829 271.73 939.829 266.245C940.25 232.911 941.09 201.266 941.09 173.418Z" fill="white"/>
<path d="M1158.76 182.7C1159.18 177.637 1159.18 174.684 1159.18 173.418C1159.18 105.485 1111.68 84.3882 1067.12 84.3882C1011.2 84.3882 961.598 115.612 961.598 193.671C961.598 267.932 1011.62 300 1064.59 300C1113.78 300 1146.57 275.105 1157.5 221.941H1156.66C1142.79 249.789 1117.98 260.759 1092.76 260.759C1060.39 260.759 1032.64 238.397 1032.64 183.544V182.7H1158.76ZM1066.28 92.4051C1083.51 92.4051 1094.86 107.173 1094.86 162.447C1094.86 164.135 1094.86 169.62 1094.44 175.105H1032.64C1033.49 113.924 1045.26 92.4051 1066.28 92.4051Z" fill="white"/>
<path d="M1386.16 173.418C1386.16 115.19 1362.61 84.3882 1320.57 84.3882C1286.52 84.3882 1264.24 102.954 1253.73 132.489V87.7637H1160.4V88.6076L1181 109.705C1184.37 113.502 1184.79 114.768 1184.79 120.253V266.245C1184.79 271.73 1184.79 272.996 1181 276.371L1160.4 295.781V296.624H1278.11V295.781L1257.52 276.371C1253.73 272.996 1253.73 271.73 1253.73 266.245V137.975C1261.3 127.004 1271.39 119.409 1284.84 119.409C1310.91 119.409 1316.79 144.726 1316.79 183.122C1316.79 203.376 1315.53 260.338 1315.53 266.667C1315.53 271.308 1315.11 272.996 1311.75 276.371L1291.57 295.781V296.624H1409.7V295.781L1388.68 276.371C1385.32 272.996 1384.89 271.73 1384.89 266.245C1385.32 232.911 1386.16 199.578 1386.16 173.418Z" fill="white"/>
<path d="M1542.25 87.7637H1490.54V16.8776H1489.7L1430.85 83.1224C1426.64 87.7637 1424.54 87.7637 1417.81 87.7637H1398.9V96.2025H1422.02V242.194C1422.02 280.169 1440.09 300 1476.67 300C1516.61 300 1533.84 275.527 1538.05 251.899L1537.21 251.477C1532.58 259.916 1523.75 267.089 1512.82 267.089C1498.95 267.089 1490.54 256.118 1490.54 237.131V96.2025H1542.25V87.7637Z" fill="white"/>
<path d="M1884.52 37.5527C1884.52 32.0675 1884.94 30.8017 1888.3 27.4262L1916.05 0.843869V0H1776.47V0.843869L1804.22 27.4262C1808 30.8017 1808.42 32.0675 1808.42 37.5527V140.506H1710.89V37.5527C1710.89 32.0675 1711.31 30.8017 1715.1 27.4262L1742.84 0.843869V0H1602.85V0.843869L1631.02 27.4262C1634.38 30.8017 1634.8 32.0675 1634.8 37.5527V259.072C1634.8 264.557 1634.38 265.823 1631.02 269.198L1602.85 295.781V296.624H1742.84V295.781L1715.1 269.198C1711.31 265.823 1710.89 264.557 1710.89 259.072V148.945H1808.42V259.072C1808.42 264.557 1807.58 265.823 1804.22 269.198L1776.47 295.781V296.624H1916.05V295.781L1888.3 269.198C1884.94 265.823 1884.52 264.557 1884.52 259.072V37.5527Z" fill="white"/>
<path d="M2023.56 92.4051C2044.58 92.4051 2057.61 110.97 2057.61 192.405C2057.61 274.262 2044.58 292.405 2023.56 292.405C2002.54 292.405 1989.51 273.418 1989.51 191.983C1989.51 110.127 2002.54 92.4051 2023.56 92.4051ZM2023.56 300C2089.98 300 2134.54 263.291 2134.54 192.405C2134.54 120.675 2089.98 84.3882 2023.56 84.3882C1957.14 84.3882 1912.99 121.097 1912.99 191.983C1912.99 263.713 1957.14 300 2023.56 300Z" fill="white"/>
<path d="M2351.62 87.7637H2258.29V88.6076L2278.89 109.705C2282.25 113.502 2282.67 114.768 2282.67 120.253V246.414C2275.52 256.962 2265.86 265.401 2252.4 265.401C2228.86 265.401 2223.4 240.084 2223.4 202.532C2223.4 197.046 2223.82 89.0295 2223.82 87.7637H2130.91V88.6076L2151.51 109.705C2154.87 113.08 2155.29 114.346 2155.29 119.831C2154.87 154.008 2154.45 184.388 2154.45 212.236C2154.45 269.62 2176.73 300 2218.35 300C2249.46 300 2272.16 280.169 2282.67 251.477V296.624H2376.42V295.781L2355.4 275.106C2351.62 271.73 2351.62 270.042 2351.62 264.557V87.7637Z" fill="white"/>
<path d="M2492.75 261.603C2492.75 279.747 2477.62 292.405 2453.24 292.405H2443.57C2438.94 292.405 2436.42 290.295 2434.74 286.92L2401.11 221.519H2400.27L2377.15 286.92C2401.11 295.359 2430.54 300 2454.5 300C2510.41 300 2548.67 275.527 2548.67 229.958C2548.67 197.468 2528.07 183.122 2502 171.73L2475.1 159.916C2450.29 148.945 2436.42 140.084 2436.42 121.519C2436.42 101.688 2451.98 91.9831 2470.47 91.9831H2476.36C2482.24 91.9831 2483.5 94.0928 2486.03 98.3122L2518.82 156.962H2519.66L2543.2 95.7806C2515.88 87.3418 2489.81 84.3882 2469.21 84.3882C2415.82 84.3882 2383.03 110.97 2383.03 151.055C2383.03 181.013 2400.69 200 2423.81 210.97L2452.4 224.473C2479.72 237.131 2492.75 244.304 2492.75 261.603Z" fill="white"/>
<path d="M2752.58 182.7C2753 177.637 2753 174.684 2753 173.418C2753 105.485 2705.5 84.3882 2660.93 84.3882C2605.02 84.3882 2555.42 115.612 2555.42 193.671C2555.42 267.932 2605.44 300 2658.41 300C2707.6 300 2740.39 275.105 2751.32 221.941H2750.48C2736.6 249.789 2711.8 260.759 2686.58 260.759C2654.21 260.759 2626.46 238.397 2626.46 183.544V182.7H2752.58ZM2660.09 92.4051C2677.33 92.4051 2688.68 107.173 2688.68 162.447C2688.68 164.135 2688.68 169.62 2688.26 175.105H2626.46C2627.3 113.924 2639.07 92.4051 2660.09 92.4051Z" fill="white"/>
</svg>
