<svg width="544" height="300" viewBox="0 0 544 300" fill="none" xmlns="http://www.w3.org/2000/svg">
<path d="M336.96 148.945V259.072C336.96 264.557 337.384 265.823 341.204 269.198L369.213 295.781V296.624H227.893V295.781L256.327 269.198C259.722 265.823 260.147 264.557 260.147 259.072V89.4515C260.147 82.2785 260.571 72.5738 261.42 64.135L165.509 300H164.66C164.66 300 86.1828 144.987 57.2917 64.557V225.738C57.2917 232.198 58.0688 233.25 62.2256 238.873C62.413 239.127 62.6073 239.389 62.8086 239.662L105.671 295.781V296.624H0V295.781L42.8626 239.662C43.064 239.389 43.2583 239.127 43.4457 238.873C47.6025 233.25 48.3796 232.198 48.3796 225.738V58.6498C48.3796 51.4768 47.9552 50.6329 44.5602 46.4135L9.7608 0.843871V0H111.188L199.884 192.405L277.971 0H369.213V0.843871L341.204 31.6456C337.384 35.443 336.96 36.2869 336.96 42.1941V140.506H435.358V37.5527C435.358 32.0675 434.934 30.8017 431.114 27.4262L403.105 0.843871V0H544V0.843871L515.991 27.4262C512.596 30.8017 512.171 32.0675 512.171 37.5527V259.072C512.171 264.557 512.596 265.823 515.991 269.198L544 295.781V296.624H403.105V295.781L431.114 269.198C434.509 265.823 435.358 264.557 435.358 259.072V148.945H336.96Z" fill="white"/>
</svg>
