<svg width="281" height="472" viewBox="0 0 281 472" fill="none" xmlns="http://www.w3.org/2000/svg">
<path d="M126.448 10.4609C120.031 5.99863 113.299 0.742462 105.483 0.742462H20.1333C9.08761 0.742462 0.133301 9.69677 0.133301 20.7425L0.133301 451.742C0.133301 462.788 9.08761 471.742 20.1333 471.742H105.483C113.299 471.742 120.031 466.486 126.448 462.024C130.33 459.325 135.047 457.742 140.133 457.742C145.22 457.742 149.937 459.325 153.818 462.024C160.236 466.486 166.967 471.742 174.784 471.742H260.133C271.179 471.742 280.133 462.788 280.133 451.742V20.7425C280.133 9.69677 271.179 0.742462 260.133 0.742462H174.784C166.967 0.742462 160.236 5.99863 153.819 10.4609C149.937 13.1602 145.22 14.7425 140.133 14.7425C135.047 14.7425 130.33 13.1602 126.448 10.4609Z" fill="white"/>
</svg>