<svg width="192" height="21" viewBox="0 0 192 21" fill="none" xmlns="http://www.w3.org/2000/svg">
<path d="M22.2706 17.3821C22.2706 17.6605 22.363 17.8833 22.549 18.0503L24.3853 19.8044V19.86H15.1152V19.8044L16.9794 18.0503C17.1515 17.8719 17.2426 17.6301 17.2312 17.3821V6.18961C17.2312 5.63277 17.2578 5.07593 17.3147 4.51909L11.0212 20.0828H10.9655L4.45047 5.77198C4.17205 5.19616 3.99613 4.78866 3.92147 4.54694V15.1826C3.92147 15.461 4.04296 15.7673 4.28341 16.1014L7.09546 19.8044V19.86H0.164062V19.8044L2.97611 16.1014C3.21782 15.7673 3.33805 15.461 3.33805 15.1826V4.15715C3.33805 3.82304 3.25453 3.55348 3.08747 3.34973L0.803163 0.342794V0.287109H7.4574L13.2776 12.9831L18.3993 0.287109H24.3853V0.342794L22.549 2.37526C22.3643 2.55876 22.263 2.81061 22.2706 3.07131V17.3821ZM34.0212 7.80445C33.6491 6.85782 33.0834 6.38451 32.3228 6.38451C31.561 6.38451 30.994 6.84896 30.6232 7.77661C30.2524 8.68654 30.0664 10.4127 30.0664 12.9552C30.0664 15.48 30.2524 17.215 30.6232 18.1617C30.9953 19.1083 31.561 19.5816 32.3228 19.5816C33.0822 19.5816 33.6491 19.1172 34.0199 18.1895C34.392 17.2619 34.5768 15.5255 34.5768 12.9831C34.5768 10.4583 34.392 8.7321 34.0199 7.80445H34.0212ZM32.3228 20.0828C30.0575 20.0828 28.2668 19.4791 26.9481 18.273C25.6496 17.048 24.9991 15.275 24.9991 12.9552C24.9991 10.6722 25.6585 8.91813 26.9772 7.69308C28.2933 6.46803 30.0765 5.85551 32.3228 5.85551C34.5869 5.85551 36.3777 6.46803 37.6951 7.69308C39.0138 8.89915 39.6731 10.6633 39.6731 12.9831C39.6731 15.2661 39.0037 17.0202 37.6685 18.2452C36.3498 19.4703 34.5679 20.0828 32.3228 20.0828ZM64.1614 11.7302C64.1614 12.4541 64.1425 13.5779 64.1058 15.0991C64.0931 16.0178 64.083 16.9366 64.0767 17.8554C64.0767 18.1338 64.1703 18.3566 64.3551 18.5236L65.7206 19.8044V19.86H57.9248V19.8044L59.2321 18.5236C59.4093 18.3578 59.5106 18.1262 59.5106 17.8833L59.5397 15.461C59.5764 13.9208 59.5954 12.8907 59.5954 12.3705C59.5954 10.9784 59.4372 9.9293 59.122 9.22439C58.8246 8.51948 58.2678 8.1664 57.4515 8.1664C56.5973 8.1664 55.8633 8.56504 55.2507 9.3636C55.4254 10.1406 55.5102 10.9341 55.5013 11.7302C55.5013 12.3984 55.4836 13.5121 55.4456 15.0712C55.4279 16.6114 55.4191 17.539 55.4191 17.8554C55.4191 18.1338 55.5026 18.3566 55.6696 18.5236L57.0617 19.8044V19.86H49.2381V19.8044L50.5745 18.5236C50.7429 18.354 50.8327 18.1224 50.8239 17.8833L50.853 15.4888C50.8897 13.9297 50.9086 12.8907 50.9086 12.3705C50.9086 10.9784 50.7593 9.9293 50.4632 9.22439C50.1658 8.51948 49.6089 8.1664 48.7927 8.1664C47.9751 8.1664 47.2892 8.57517 46.7311 9.39145V17.8554C46.7311 18.1528 46.8146 18.3743 46.9817 18.5236L48.3459 19.8044V19.86H40.5502V19.8044L41.9144 18.5236C42.0827 18.3756 42.1663 18.1528 42.1663 17.8554V8.22208C42.1739 7.96644 42.084 7.71713 41.9144 7.52603L40.5502 6.13393V6.07825H46.7311V9.0295C47.4929 6.91351 48.9686 5.85551 51.158 5.85551C53.2562 5.85551 54.6015 6.95021 55.195 9.14087C55.5152 8.19424 56.1176 7.3691 56.9213 6.7743C57.7388 6.16177 58.7133 5.85551 59.8447 5.85551C61.2368 5.85551 62.3049 6.35667 63.0465 7.35898C63.7894 8.36129 64.1602 9.81793 64.1602 11.7302H64.1614ZM79.4113 12.3427H71.0587V12.3984C71.0587 14.1069 71.4307 15.3863 72.1723 16.2406C72.9152 17.0758 73.872 17.4935 75.0413 17.4935C77.008 17.4935 78.4203 16.6392 79.2733 14.932H79.329C78.6228 18.3654 76.5726 20.0828 73.1759 20.0828C71.2649 20.0828 69.6488 19.488 68.3314 18.3009C67.0127 17.1125 66.3546 15.3686 66.3546 13.0666C66.3546 10.6355 67.0127 8.82575 68.3314 7.6374C69.6488 6.44905 71.3194 5.85551 73.343 5.85551C74.1226 5.85551 74.8553 5.95675 75.5425 6.16177C76.2284 6.36553 76.8688 6.68065 77.4636 7.1084C78.0761 7.53489 78.5583 8.14741 78.9114 8.94597C79.2632 9.72555 79.4404 10.6545 79.4404 11.7302C79.4404 11.9162 79.4303 12.12 79.4125 12.3427H79.4113ZM73.286 6.38451C72.5634 6.38451 72.0154 6.811 71.6446 7.66524C71.2725 8.5005 71.0777 9.8926 71.0599 11.8415H75.1527C75.1704 11.6011 75.1805 11.3227 75.1805 11.0063C75.1805 9.28008 75.0135 8.08287 74.6794 7.41466C74.363 6.72747 73.8998 6.38451 73.2873 6.38451H73.286ZM95.3065 11.7302C95.3065 12.3984 95.2888 13.5121 95.2521 15.0712C95.2331 16.6114 95.2243 17.539 95.2243 17.8554C95.2243 18.1338 95.3078 18.3566 95.4748 18.5236L96.8669 19.8044V19.86H89.0433V19.8044L90.3798 18.5236C90.5481 18.354 90.6392 18.1224 90.6303 17.8833L90.6582 15.4888C90.6949 13.9297 90.7139 12.8907 90.7139 12.3705C90.7139 10.9784 90.5645 9.9293 90.2684 9.22439C89.971 8.51948 89.4142 8.1664 88.5979 8.1664C87.7803 8.1664 87.0944 8.57517 86.5376 9.39145V17.8554C86.5376 18.1528 86.6211 18.3743 86.7881 18.5236L88.1524 19.8044V19.86H80.3566V19.8044L81.7209 18.5236C81.8879 18.3756 81.9715 18.1528 81.9715 17.8554V8.22208C81.9803 7.96644 81.8905 7.71713 81.7209 7.52603L80.3566 6.13393V6.07825H86.5376V9.0295C87.2982 6.91351 88.7738 5.85551 90.9644 5.85551C92.3565 5.85551 93.4234 6.35667 94.1663 7.35898C94.9269 8.36129 95.3078 9.81793 95.3078 11.7302H95.3065ZM106.481 6.07825V6.63509H103.055V15.9343C103.055 16.5658 103.186 17.0569 103.445 17.4099C103.706 17.744 104.068 17.9111 104.531 17.9111C105.237 17.9111 105.775 17.5681 106.146 16.8809L106.202 16.9088C106.046 17.7782 105.606 18.5717 104.949 19.164C104.299 19.7765 103.362 20.0828 102.137 20.0828C99.7245 20.0828 98.5172 18.8109 98.5172 16.2684V6.63509H96.9859V6.07825H98.2388C98.6286 6.07825 98.9171 5.977 99.1019 5.77198L103 1.40079H103.055V6.07825H106.48H106.481ZM130.819 2.76505V17.3821C130.819 17.6605 130.903 17.8833 131.07 18.0503L132.907 19.8044V19.86H123.664V19.8044L125.501 18.0503C125.682 17.8757 125.783 17.6339 125.78 17.3821V10.1153H119.32V17.3821C119.32 17.6605 119.413 17.8833 119.599 18.0503L121.436 19.8044V19.86H112.165V19.8044L114.03 18.0503C114.202 17.8719 114.292 17.6301 114.281 17.3821V2.76505C114.292 2.517 114.202 2.27528 114.03 2.09684L112.165 0.342794V0.287109H121.436V0.342794L119.599 2.09684C119.411 2.26769 119.309 2.51194 119.32 2.76505V9.5585H125.78V2.76505C125.791 2.51194 125.688 2.26769 125.501 2.09684L123.664 0.342794V0.287109H132.907V0.342794L131.07 2.09684C130.897 2.27528 130.808 2.517 130.819 2.76505ZM142.561 7.80445C142.19 6.85782 141.623 6.38451 140.862 6.38451C140.102 6.38451 139.535 6.84896 139.164 7.77661C138.793 8.68654 138.607 10.4127 138.607 12.9552C138.607 15.48 138.793 17.215 139.164 18.1617C139.535 19.1083 140.102 19.5816 140.862 19.5816C141.623 19.5816 142.19 19.1172 142.561 18.1895C142.932 17.2619 143.118 15.5255 143.118 12.9831C143.118 10.4583 142.932 8.7321 142.561 7.80445ZM140.862 20.0828C138.598 20.0828 136.806 19.4791 135.489 18.273C134.189 17.048 133.54 15.275 133.54 12.9552C133.54 10.6722 134.199 8.91813 135.517 7.69308C136.834 6.46803 138.616 5.85551 140.862 5.85551C143.126 5.85551 144.918 6.46803 146.236 7.69308C147.553 8.89915 148.213 10.6633 148.213 12.9831C148.213 15.2661 147.544 17.0202 146.208 18.2452C144.891 19.4703 143.109 20.0828 140.862 20.0828ZM163.425 6.07825V17.744C163.425 18.0604 163.508 18.292 163.675 18.4401L165.067 19.8044V19.86H158.858V16.8809C158.505 17.8643 157.959 18.6438 157.216 19.2197C156.473 19.7955 155.601 20.0828 154.599 20.0828C153.225 20.0828 152.176 19.5905 151.452 18.6071C150.729 17.6238 150.367 16.1849 150.367 14.2916C150.367 13.2336 150.386 11.2012 150.422 8.19424C150.434 7.94619 150.344 7.70447 150.172 7.52603L148.807 6.13393V6.07825H154.961L154.933 9.75339V13.6513C154.933 15.0054 155.072 16.0368 155.35 16.7417C155.629 17.4466 156.13 17.7997 156.854 17.7997C157.614 17.7997 158.283 17.3821 158.858 16.5468V8.22208C158.867 7.96644 158.777 7.71713 158.608 7.52603L157.244 6.13393V6.07825H163.425ZM173.607 17.5492C173.607 17.0113 173.412 16.5835 173.022 16.2684C172.652 15.952 171.956 15.5635 170.934 15.0991L169.041 14.2081C167.24 13.3539 166.34 12.0364 166.34 10.2545C166.34 8.91813 166.85 7.85001 167.872 7.05272C168.893 6.25542 170.285 5.85551 172.048 5.85551C173.682 5.85551 175.314 6.10609 176.948 6.60724L175.389 10.6443H175.333L173.162 6.7743C172.995 6.49588 172.781 6.35667 172.521 6.35667H172.131C171.482 6.35667 170.943 6.52372 170.517 6.85782C170.09 7.19193 169.876 7.6741 169.876 8.30561C169.876 8.88143 170.071 9.34462 170.461 9.69771C170.87 10.0508 171.528 10.4317 172.438 10.8392L174.22 11.6188C175.222 12.0453 175.983 12.5465 176.503 13.1223C177.041 13.6981 177.31 14.4764 177.31 15.461C177.31 16.9278 176.744 18.068 175.612 18.8856C174.479 19.6829 172.967 20.0828 171.073 20.0828C169.292 20.0828 167.584 19.7955 165.951 19.2197L167.482 14.9042H167.538L169.765 19.2197C169.876 19.4601 170.071 19.5816 170.35 19.5816H170.99C171.789 19.5816 172.419 19.3956 172.883 19.0248C173.351 18.6818 173.622 18.13 173.607 17.5492ZM191.65 12.3427H183.297V12.3984C183.297 14.1069 183.669 15.3863 184.411 16.2406C185.154 17.0758 186.109 17.4935 187.279 17.4935C189.247 17.4935 190.658 16.6392 191.511 14.932H191.566C190.862 18.3654 188.81 20.0828 185.413 20.0828C183.502 20.0828 181.888 19.488 180.569 18.3009C179.251 17.1125 178.592 15.3686 178.592 13.0666C178.592 10.6355 179.251 8.82575 180.569 7.6374C181.888 6.44905 183.558 5.85551 185.58 5.85551C186.36 5.85551 187.094 5.95675 187.78 6.16177C188.467 6.36553 189.108 6.68065 189.701 7.1084C190.314 7.53489 190.797 8.14741 191.149 8.94597C191.502 9.72555 191.678 10.6545 191.678 11.7302C191.678 11.9162 191.669 12.12 191.65 12.3427ZM185.525 6.38451C184.801 6.38451 184.254 6.811 183.882 7.66524C183.511 8.5005 183.316 9.8926 183.297 11.8415H187.39C187.409 11.6011 187.418 11.3227 187.418 11.0063C187.418 9.28008 187.251 8.08287 186.917 7.41466C186.602 6.72747 186.137 6.38451 185.525 6.38451Z" fill="currentColor"/>
</svg>
