<?xml version="1.0" standalone="no"?>
<!DOCTYPE svg PUBLIC "-//W3C//DTD SVG 20010904//EN"
 "http://www.w3.org/TR/2001/REC-SVG-20010904/DTD/svg10.dtd">
<svg version="1.0" xmlns="http://www.w3.org/2000/svg"
 width="700.000000pt" height="700.000000pt" viewBox="0 0 700.000000 700.000000"
 preserveAspectRatio="xMidYMid meet">
<metadata>
Created by potrace 1.14, written by Peter Selinger 2001-2017
</metadata>
<g transform="translate(0.000000,700.000000) scale(0.100000,-0.100000)"
fill="#000000" stroke="none">
<path d="M1857 4443 c-3 -5 48 -79 114 -166 l119 -157 0 -579 0 -579 -151
-198 -151 -199 166 -3 c90 -1 241 -1 335 0 l171 3 -141 185 c-78 102 -148 200
-155 217 -12 27 -14 126 -12 540 l3 507 49 -124 c52 -135 192 -454 304 -697
108 -233 315 -653 321 -653 3 0 78 179 165 398 88 218 221 548 295 733 l136
336 -2 -626 -3 -626 -102 -97 -103 -97 450 -1 450 0 -103 103 -102 102 0 363
0 362 305 0 305 0 0 -367 0 -366 -102 -98 -103 -98 450 -1 450 0 -103 103
-102 102 0 740 0 740 101 95 c55 52 97 99 93 103 -9 9 -868 10 -877 0 -4 -3
38 -49 93 -100 l100 -95 0 -349 0 -349 -305 0 -305 0 0 330 0 330 100 112 c55
62 100 116 100 120 0 5 -129 7 -287 6 l-286 -3 -246 -609 c-215 -536 -246
-606 -255 -585 -6 13 -131 287 -278 609 l-266 585 -315 3 c-174 1 -318 -1
-320 -5z"/>
</g>
</svg>
